<svg x="0px" y="0px" viewBox="73.5 9.3 488.3 400.3"><path fill="#ee0099" class="quotemark" d="M226,152c14.2-55.5,51.9-77.2,95-90.1c4.4-1.3,3.6-5.8,3.6-5.8l-6.2-44c0,0-0.9-3.6-6.2-2.7 C159.9,25.4,57.8,141.3,75.5,282c18.6,98.1,95,135.8,164.7,125.6c70.1-11.5,118.5-76.8,107.4-146.9C338.4,198.1,286.4,154.2,226,152 z"></path><path fill="#ee0099" class="quotemark" d="M560.3,260.7C551,199,498.6,155.1,438.7,152c15.1-55.5,51.1-77.2,95-90.1c4.4-1.3,3.6-5.8,3.6-5.8l-7.1-44 c0,0-0.9-3.6-6.2-2.7C372.1,26.3,269.1,142.2,288.2,282.9c17.8,97.2,93.7,135,164.3,125.2C522.6,396.1,571,330.9,560.3,260.7 L560.3,260.7z"></path><path fill="#cc0099" class="t-s-fill" d="M347.2,260.7c-5.3-35.1-24-64.4-49.7-83.9c-10.7,32.4-14.7,68.4-9.3,105.7c5.8,32,17.8,57.3,33.7,76.8 C343.2,332.2,353.5,297.1,347.2,260.7z"></path></svg>